<?xml version="1.0" encoding="utf-8" standalone="no"?>
<!DOCTYPE svg PUBLIC "-//W3C//DTD SVG 1.1//EN"
  "http://www.w3.org/Graphics/SVG/1.1/DTD/svg11.dtd">
<!-- Created with matplotlib (https://matplotlib.org/) -->
<svg height="510.23622pt" version="1.1" viewBox="0 0 226.771654 510.23622" width="226.771654pt" xmlns="http://www.w3.org/2000/svg" xmlns:xlink="http://www.w3.org/1999/xlink">
 <metadata>
  <rdf:RDF xmlns:cc="http://creativecommons.org/ns#" xmlns:dc="http://purl.org/dc/elements/1.1/" xmlns:rdf="http://www.w3.org/1999/02/22-rdf-syntax-ns#">
   <cc:Work>
    <dc:type rdf:resource="http://purl.org/dc/dcmitype/StillImage"/>
    <dc:date>2023-05-09T18:03:02.446196</dc:date>
    <dc:format>image/svg+xml</dc:format>
    <dc:creator>
     <cc:Agent>
      <dc:title>Matplotlib v3.3.4, https://matplotlib.org/</dc:title>
     </cc:Agent>
    </dc:creator>
   </cc:Work>
  </rdf:RDF>
 </metadata>
 <defs>
  <style type="text/css">*{stroke-linecap:butt;stroke-linejoin:round;}</style>
 </defs>
 <g id="figure_1">
  <g id="patch_1">
   <path d="M 0 510.23622 
L 226.771654 510.23622 
L 226.771654 0 
L 0 0 
z
" style="fill:#ffffff;"/>
  </g>
  <g id="axes_1">
   <g id="patch_2">
    <path d="M 45.354331 126.283465 
L 215.433071 126.283465 
L 215.433071 15.307087 
L 45.354331 15.307087 
z
" style="fill:#ffffff;"/>
   </g>
   <g id="matplotlib.axis_1">
    <g id="xtick_1">
     <g id="line2d_1">
      <defs>
       <path d="M 0 0 
L 0 3.5 
" id="m2d43b5b257" style="stroke:#000000;stroke-width:0.8;"/>
      </defs>
      <g>
       <use style="stroke:#000000;stroke-width:0.8;" x="53.085183" xlink:href="#m2d43b5b257" y="126.283465"/>
      </g>
     </g>
     <g id="text_1">
      <!-- 0 -->
      <g transform="translate(51.176433 137.842527)scale(0.06 -0.06)">
       <defs>
        <path d="M 31.78125 66.40625 
Q 24.171875 66.40625 20.328125 58.90625 
Q 16.5 51.421875 16.5 36.375 
Q 16.5 21.390625 20.328125 13.890625 
Q 24.171875 6.390625 31.78125 6.390625 
Q 39.453125 6.390625 43.28125 13.890625 
Q 47.125 21.390625 47.125 36.375 
Q 47.125 51.421875 43.28125 58.90625 
Q 39.453125 66.40625 31.78125 66.40625 
z
M 31.78125 74.21875 
Q 44.046875 74.21875 50.515625 64.515625 
Q 56.984375 54.828125 56.984375 36.375 
Q 56.984375 17.96875 50.515625 8.265625 
Q 44.046875 -1.421875 31.78125 -1.421875 
Q 19.53125 -1.421875 13.0625 8.265625 
Q 6.59375 17.96875 6.59375 36.375 
Q 6.59375 54.828125 13.0625 64.515625 
Q 19.53125 74.21875 31.78125 74.21875 
z
" id="DejaVuSans-48"/>
       </defs>
       <use xlink:href="#DejaVuSans-48"/>
      </g>
     </g>
    </g>
    <g id="xtick_2">
     <g id="line2d_2">
      <g>
       <use style="stroke:#000000;stroke-width:0.8;" x="104.624195" xlink:href="#m2d43b5b257" y="126.283465"/>
      </g>
     </g>
     <g id="text_2">
      <!-- 20 -->
      <g transform="translate(100.806695 137.842527)scale(0.06 -0.06)">
       <defs>
        <path d="M 19.1875 8.296875 
L 53.609375 8.296875 
L 53.609375 0 
L 7.328125 0 
L 7.328125 8.296875 
Q 12.9375 14.109375 22.625 23.890625 
Q 32.328125 33.6875 34.8125 36.53125 
Q 39.546875 41.84375 41.421875 45.53125 
Q 43.3125 49.21875 43.3125 52.78125 
Q 43.3125 58.59375 39.234375 62.25 
Q 35.15625 65.921875 28.609375 65.921875 
Q 23.96875 65.921875 18.8125 64.3125 
Q 13.671875 62.703125 7.8125 59.421875 
L 7.8125 69.390625 
Q 13.765625 71.78125 18.9375 73 
Q 24.125 74.21875 28.421875 74.21875 
Q 39.75 74.21875 46.484375 68.546875 
Q 53.21875 62.890625 53.21875 53.421875 
Q 53.21875 48.921875 51.53125 44.890625 
Q 49.859375 40.875 45.40625 35.40625 
Q 44.1875 33.984375 37.640625 27.21875 
Q 31.109375 20.453125 19.1875 8.296875 
z
" id="DejaVuSans-50"/>
       </defs>
       <use xlink:href="#DejaVuSans-50"/>
       <use x="63.623047" xlink:href="#DejaVuSans-48"/>
      </g>
     </g>
    </g>
    <g id="xtick_3">
     <g id="line2d_3">
      <g>
       <use style="stroke:#000000;stroke-width:0.8;" x="156.163207" xlink:href="#m2d43b5b257" y="126.283465"/>
      </g>
     </g>
     <g id="text_3">
      <!-- 40 -->
      <g transform="translate(152.345707 137.842527)scale(0.06 -0.06)">
       <defs>
        <path d="M 37.796875 64.3125 
L 12.890625 25.390625 
L 37.796875 25.390625 
z
M 35.203125 72.90625 
L 47.609375 72.90625 
L 47.609375 25.390625 
L 58.015625 25.390625 
L 58.015625 17.1875 
L 47.609375 17.1875 
L 47.609375 0 
L 37.796875 0 
L 37.796875 17.1875 
L 4.890625 17.1875 
L 4.890625 26.703125 
z
" id="DejaVuSans-52"/>
       </defs>
       <use xlink:href="#DejaVuSans-52"/>
       <use x="63.623047" xlink:href="#DejaVuSans-48"/>
      </g>
     </g>
    </g>
    <g id="xtick_4">
     <g id="line2d_4">
      <g>
       <use style="stroke:#000000;stroke-width:0.8;" x="207.702219" xlink:href="#m2d43b5b257" y="126.283465"/>
      </g>
     </g>
     <g id="text_4">
      <!-- 60 -->
      <g transform="translate(203.884719 137.842527)scale(0.06 -0.06)">
       <defs>
        <path d="M 33.015625 40.375 
Q 26.375 40.375 22.484375 35.828125 
Q 18.609375 31.296875 18.609375 23.390625 
Q 18.609375 15.53125 22.484375 10.953125 
Q 26.375 6.390625 33.015625 6.390625 
Q 39.65625 6.390625 43.53125 10.953125 
Q 47.40625 15.53125 47.40625 23.390625 
Q 47.40625 31.296875 43.53125 35.828125 
Q 39.65625 40.375 33.015625 40.375 
z
M 52.59375 71.296875 
L 52.59375 62.3125 
Q 48.875 64.0625 45.09375 64.984375 
Q 41.3125 65.921875 37.59375 65.921875 
Q 27.828125 65.921875 22.671875 59.328125 
Q 17.53125 52.734375 16.796875 39.40625 
Q 19.671875 43.65625 24.015625 45.921875 
Q 28.375 48.1875 33.59375 48.1875 
Q 44.578125 48.1875 50.953125 41.515625 
Q 57.328125 34.859375 57.328125 23.390625 
Q 57.328125 12.15625 50.6875 5.359375 
Q 44.046875 -1.421875 33.015625 -1.421875 
Q 20.359375 -1.421875 13.671875 8.265625 
Q 6.984375 17.96875 6.984375 36.375 
Q 6.984375 53.65625 15.1875 63.9375 
Q 23.390625 74.21875 37.203125 74.21875 
Q 40.921875 74.21875 44.703125 73.484375 
Q 48.484375 72.75 52.59375 71.296875 
z
" id="DejaVuSans-54"/>
       </defs>
       <use xlink:href="#DejaVuSans-54"/>
       <use x="63.623047" xlink:href="#DejaVuSans-48"/>
      </g>
     </g>
    </g>
    <g id="text_5">
     <!-- time (s) -->
     <g transform="translate(116.819716 148.409246)scale(0.07 -0.07)">
      <defs>
       <path d="M 18.3125 70.21875 
L 18.3125 54.6875 
L 36.8125 54.6875 
L 36.8125 47.703125 
L 18.3125 47.703125 
L 18.3125 18.015625 
Q 18.3125 11.328125 20.140625 9.421875 
Q 21.96875 7.515625 27.59375 7.515625 
L 36.8125 7.515625 
L 36.8125 0 
L 27.59375 0 
Q 17.1875 0 13.234375 3.875 
Q 9.28125 7.765625 9.28125 18.015625 
L 9.28125 47.703125 
L 2.6875 47.703125 
L 2.6875 54.6875 
L 9.28125 54.6875 
L 9.28125 70.21875 
z
" id="DejaVuSans-116"/>
       <path d="M 9.421875 54.6875 
L 18.40625 54.6875 
L 18.40625 0 
L 9.421875 0 
z
M 9.421875 75.984375 
L 18.40625 75.984375 
L 18.40625 64.59375 
L 9.421875 64.59375 
z
" id="DejaVuSans-105"/>
       <path d="M 52 44.1875 
Q 55.375 50.25 60.0625 53.125 
Q 64.75 56 71.09375 56 
Q 79.640625 56 84.28125 50.015625 
Q 88.921875 44.046875 88.921875 33.015625 
L 88.921875 0 
L 79.890625 0 
L 79.890625 32.71875 
Q 79.890625 40.578125 77.09375 44.375 
Q 74.3125 48.1875 68.609375 48.1875 
Q 61.625 48.1875 57.5625 43.546875 
Q 53.515625 38.921875 53.515625 30.90625 
L 53.515625 0 
L 44.484375 0 
L 44.484375 32.71875 
Q 44.484375 40.625 41.703125 44.40625 
Q 38.921875 48.1875 33.109375 48.1875 
Q 26.21875 48.1875 22.15625 43.53125 
Q 18.109375 38.875 18.109375 30.90625 
L 18.109375 0 
L 9.078125 0 
L 9.078125 54.6875 
L 18.109375 54.6875 
L 18.109375 46.1875 
Q 21.1875 51.21875 25.484375 53.609375 
Q 29.78125 56 35.6875 56 
Q 41.65625 56 45.828125 52.96875 
Q 50 49.953125 52 44.1875 
z
" id="DejaVuSans-109"/>
       <path d="M 56.203125 29.59375 
L 56.203125 25.203125 
L 14.890625 25.203125 
Q 15.484375 15.921875 20.484375 11.0625 
Q 25.484375 6.203125 34.421875 6.203125 
Q 39.59375 6.203125 44.453125 7.46875 
Q 49.3125 8.734375 54.109375 11.28125 
L 54.109375 2.78125 
Q 49.265625 0.734375 44.1875 -0.34375 
Q 39.109375 -1.421875 33.890625 -1.421875 
Q 20.796875 -1.421875 13.15625 6.1875 
Q 5.515625 13.8125 5.515625 26.8125 
Q 5.515625 40.234375 12.765625 48.109375 
Q 20.015625 56 32.328125 56 
Q 43.359375 56 49.78125 48.890625 
Q 56.203125 41.796875 56.203125 29.59375 
z
M 47.21875 32.234375 
Q 47.125 39.59375 43.09375 43.984375 
Q 39.0625 48.390625 32.421875 48.390625 
Q 24.90625 48.390625 20.390625 44.140625 
Q 15.875 39.890625 15.1875 32.171875 
z
" id="DejaVuSans-101"/>
       <path id="DejaVuSans-32"/>
       <path d="M 31 75.875 
Q 24.46875 64.65625 21.28125 53.65625 
Q 18.109375 42.671875 18.109375 31.390625 
Q 18.109375 20.125 21.3125 9.0625 
Q 24.515625 -2 31 -13.1875 
L 23.1875 -13.1875 
Q 15.875 -1.703125 12.234375 9.375 
Q 8.59375 20.453125 8.59375 31.390625 
Q 8.59375 42.28125 12.203125 53.3125 
Q 15.828125 64.359375 23.1875 75.875 
z
" id="DejaVuSans-40"/>
       <path d="M 44.28125 53.078125 
L 44.28125 44.578125 
Q 40.484375 46.53125 36.375 47.5 
Q 32.28125 48.484375 27.875 48.484375 
Q 21.1875 48.484375 17.84375 46.4375 
Q 14.5 44.390625 14.5 40.28125 
Q 14.5 37.15625 16.890625 35.375 
Q 19.28125 33.59375 26.515625 31.984375 
L 29.59375 31.296875 
Q 39.15625 29.25 43.1875 25.515625 
Q 47.21875 21.78125 47.21875 15.09375 
Q 47.21875 7.46875 41.1875 3.015625 
Q 35.15625 -1.421875 24.609375 -1.421875 
Q 20.21875 -1.421875 15.453125 -0.5625 
Q 10.6875 0.296875 5.421875 2 
L 5.421875 11.28125 
Q 10.40625 8.6875 15.234375 7.390625 
Q 20.0625 6.109375 24.8125 6.109375 
Q 31.15625 6.109375 34.5625 8.28125 
Q 37.984375 10.453125 37.984375 14.40625 
Q 37.984375 18.0625 35.515625 20.015625 
Q 33.0625 21.96875 24.703125 23.78125 
L 21.578125 24.515625 
Q 13.234375 26.265625 9.515625 29.90625 
Q 5.8125 33.546875 5.8125 39.890625 
Q 5.8125 47.609375 11.28125 51.796875 
Q 16.75 56 26.8125 56 
Q 31.78125 56 36.171875 55.265625 
Q 40.578125 54.546875 44.28125 53.078125 
z
" id="DejaVuSans-115"/>
       <path d="M 8.015625 75.875 
L 15.828125 75.875 
Q 23.140625 64.359375 26.78125 53.3125 
Q 30.421875 42.28125 30.421875 31.390625 
Q 30.421875 20.453125 26.78125 9.375 
Q 23.140625 -1.703125 15.828125 -13.1875 
L 8.015625 -13.1875 
Q 14.5 -2 17.703125 9.0625 
Q 20.90625 20.125 20.90625 31.390625 
Q 20.90625 42.671875 17.703125 53.65625 
Q 14.5 64.65625 8.015625 75.875 
z
" id="DejaVuSans-41"/>
      </defs>
      <use xlink:href="#DejaVuSans-116"/>
      <use x="39.208984" xlink:href="#DejaVuSans-105"/>
      <use x="66.992188" xlink:href="#DejaVuSans-109"/>
      <use x="164.404297" xlink:href="#DejaVuSans-101"/>
      <use x="225.927734" xlink:href="#DejaVuSans-32"/>
      <use x="257.714844" xlink:href="#DejaVuSans-40"/>
      <use x="296.728516" xlink:href="#DejaVuSans-115"/>
      <use x="348.828125" xlink:href="#DejaVuSans-41"/>
     </g>
    </g>
   </g>
   <g id="matplotlib.axis_2">
    <g id="ytick_1">
     <g id="line2d_5">
      <defs>
       <path d="M 0 0 
L -3.5 0 
" id="m71379e40b1" style="stroke:#000000;stroke-width:0.8;"/>
      </defs>
      <g>
       <use style="stroke:#000000;stroke-width:0.8;" x="45.354331" xlink:href="#m71379e40b1" y="116.831599"/>
      </g>
     </g>
     <g id="text_6">
      <!-- 7.0e+06 -->
      <g transform="translate(12.457768 119.11113)scale(0.06 -0.06)">
       <defs>
        <path d="M 8.203125 72.90625 
L 55.078125 72.90625 
L 55.078125 68.703125 
L 28.609375 0 
L 18.3125 0 
L 43.21875 64.59375 
L 8.203125 64.59375 
z
" id="DejaVuSans-55"/>
        <path d="M 10.6875 12.40625 
L 21 12.40625 
L 21 0 
L 10.6875 0 
z
" id="DejaVuSans-46"/>
        <path d="M 46 62.703125 
L 46 35.5 
L 73.1875 35.5 
L 73.1875 27.203125 
L 46 27.203125 
L 46 0 
L 37.796875 0 
L 37.796875 27.203125 
L 10.59375 27.203125 
L 10.59375 35.5 
L 37.796875 35.5 
L 37.796875 62.703125 
z
" id="DejaVuSans-43"/>
       </defs>
       <use xlink:href="#DejaVuSans-55"/>
       <use x="63.623047" xlink:href="#DejaVuSans-46"/>
       <use x="95.410156" xlink:href="#DejaVuSans-48"/>
       <use x="159.033203" xlink:href="#DejaVuSans-101"/>
       <use x="220.556641" xlink:href="#DejaVuSans-43"/>
       <use x="304.345703" xlink:href="#DejaVuSans-48"/>
       <use x="367.96875" xlink:href="#DejaVuSans-54"/>
      </g>
     </g>
    </g>
    <g id="ytick_2">
     <g id="line2d_6">
      <g>
       <use style="stroke:#000000;stroke-width:0.8;" x="45.354331" xlink:href="#m71379e40b1" y="84.671555"/>
      </g>
     </g>
     <g id="text_7">
      <!-- 8.0e+06 -->
      <g transform="translate(12.457768 86.951086)scale(0.06 -0.06)">
       <defs>
        <path d="M 31.78125 34.625 
Q 24.75 34.625 20.71875 30.859375 
Q 16.703125 27.09375 16.703125 20.515625 
Q 16.703125 13.921875 20.71875 10.15625 
Q 24.75 6.390625 31.78125 6.390625 
Q 38.8125 6.390625 42.859375 10.171875 
Q 46.921875 13.96875 46.921875 20.515625 
Q 46.921875 27.09375 42.890625 30.859375 
Q 38.875 34.625 31.78125 34.625 
z
M 21.921875 38.8125 
Q 15.578125 40.375 12.03125 44.71875 
Q 8.5 49.078125 8.5 55.328125 
Q 8.5 64.0625 14.71875 69.140625 
Q 20.953125 74.21875 31.78125 74.21875 
Q 42.671875 74.21875 48.875 69.140625 
Q 55.078125 64.0625 55.078125 55.328125 
Q 55.078125 49.078125 51.53125 44.71875 
Q 48 40.375 41.703125 38.8125 
Q 48.828125 37.15625 52.796875 32.3125 
Q 56.78125 27.484375 56.78125 20.515625 
Q 56.78125 9.90625 50.3125 4.234375 
Q 43.84375 -1.421875 31.78125 -1.421875 
Q 19.734375 -1.421875 13.25 4.234375 
Q 6.78125 9.90625 6.78125 20.515625 
Q 6.78125 27.484375 10.78125 32.3125 
Q 14.796875 37.15625 21.921875 38.8125 
z
M 18.3125 54.390625 
Q 18.3125 48.734375 21.84375 45.5625 
Q 25.390625 42.390625 31.78125 42.390625 
Q 38.140625 42.390625 41.71875 45.5625 
Q 45.3125 48.734375 45.3125 54.390625 
Q 45.3125 60.0625 41.71875 63.234375 
Q 38.140625 66.40625 31.78125 66.40625 
Q 25.390625 66.40625 21.84375 63.234375 
Q 18.3125 60.0625 18.3125 54.390625 
z
" id="DejaVuSans-56"/>
       </defs>
       <use xlink:href="#DejaVuSans-56"/>
       <use x="63.623047" xlink:href="#DejaVuSans-46"/>
       <use x="95.410156" xlink:href="#DejaVuSans-48"/>
       <use x="159.033203" xlink:href="#DejaVuSans-101"/>
       <use x="220.556641" xlink:href="#DejaVuSans-43"/>
       <use x="304.345703" xlink:href="#DejaVuSans-48"/>
       <use x="367.96875" xlink:href="#DejaVuSans-54"/>
      </g>
     </g>
    </g>
    <g id="ytick_3">
     <g id="line2d_7">
      <g>
       <use style="stroke:#000000;stroke-width:0.8;" x="45.354331" xlink:href="#m71379e40b1" y="52.511511"/>
      </g>
     </g>
     <g id="text_8">
      <!-- 9.0e+06 -->
      <g transform="translate(12.457768 54.791042)scale(0.06 -0.06)">
       <defs>
        <path d="M 10.984375 1.515625 
L 10.984375 10.5 
Q 14.703125 8.734375 18.5 7.8125 
Q 22.3125 6.890625 25.984375 6.890625 
Q 35.75 6.890625 40.890625 13.453125 
Q 46.046875 20.015625 46.78125 33.40625 
Q 43.953125 29.203125 39.59375 26.953125 
Q 35.25 24.703125 29.984375 24.703125 
Q 19.046875 24.703125 12.671875 31.3125 
Q 6.296875 37.9375 6.296875 49.421875 
Q 6.296875 60.640625 12.9375 67.421875 
Q 19.578125 74.21875 30.609375 74.21875 
Q 43.265625 74.21875 49.921875 64.515625 
Q 56.59375 54.828125 56.59375 36.375 
Q 56.59375 19.140625 48.40625 8.859375 
Q 40.234375 -1.421875 26.421875 -1.421875 
Q 22.703125 -1.421875 18.890625 -0.6875 
Q 15.09375 0.046875 10.984375 1.515625 
z
M 30.609375 32.421875 
Q 37.25 32.421875 41.125 36.953125 
Q 45.015625 41.5 45.015625 49.421875 
Q 45.015625 57.28125 41.125 61.84375 
Q 37.25 66.40625 30.609375 66.40625 
Q 23.96875 66.40625 20.09375 61.84375 
Q 16.21875 57.28125 16.21875 49.421875 
Q 16.21875 41.5 20.09375 36.953125 
Q 23.96875 32.421875 30.609375 32.421875 
z
" id="DejaVuSans-57"/>
       </defs>
       <use xlink:href="#DejaVuSans-57"/>
       <use x="63.623047" xlink:href="#DejaVuSans-46"/>
       <use x="95.410156" xlink:href="#DejaVuSans-48"/>
       <use x="159.033203" xlink:href="#DejaVuSans-101"/>
       <use x="220.556641" xlink:href="#DejaVuSans-43"/>
       <use x="304.345703" xlink:href="#DejaVuSans-48"/>
       <use x="367.96875" xlink:href="#DejaVuSans-54"/>
      </g>
     </g>
    </g>
    <g id="ytick_4">
     <g id="line2d_8">
      <g>
       <use style="stroke:#000000;stroke-width:0.8;" x="45.354331" xlink:href="#m71379e40b1" y="20.351467"/>
      </g>
     </g>
     <g id="text_9">
      <!-- 1.0e+07 -->
      <g transform="translate(12.457768 22.630999)scale(0.06 -0.06)">
       <defs>
        <path d="M 12.40625 8.296875 
L 28.515625 8.296875 
L 28.515625 63.921875 
L 10.984375 60.40625 
L 10.984375 69.390625 
L 28.421875 72.90625 
L 38.28125 72.90625 
L 38.28125 8.296875 
L 54.390625 8.296875 
L 54.390625 0 
L 12.40625 0 
z
" id="DejaVuSans-49"/>
       </defs>
       <use xlink:href="#DejaVuSans-49"/>
       <use x="63.623047" xlink:href="#DejaVuSans-46"/>
       <use x="95.410156" xlink:href="#DejaVuSans-48"/>
       <use x="159.033203" xlink:href="#DejaVuSans-101"/>
       <use x="220.556641" xlink:href="#DejaVuSans-43"/>
       <use x="304.345703" xlink:href="#DejaVuSans-48"/>
       <use x="367.96875" xlink:href="#DejaVuSans-55"/>
      </g>
     </g>
    </g>
    <g id="text_10">
     <!-- D$_i$ (VLP/ml) -->
     <g transform="translate(7.001987 90.185276)rotate(-90)scale(0.07 -0.07)">
      <defs>
       <path d="M 19.671875 64.796875 
L 19.671875 8.109375 
L 31.59375 8.109375 
Q 46.6875 8.109375 53.6875 14.9375 
Q 60.6875 21.78125 60.6875 36.53125 
Q 60.6875 51.171875 53.6875 57.984375 
Q 46.6875 64.796875 31.59375 64.796875 
z
M 9.8125 72.90625 
L 30.078125 72.90625 
Q 51.265625 72.90625 61.171875 64.09375 
Q 71.09375 55.28125 71.09375 36.53125 
Q 71.09375 17.671875 61.125 8.828125 
Q 51.171875 0 30.078125 0 
L 9.8125 0 
z
" id="DejaVuSans-68"/>
       <path d="M 18.3125 75.984375 
L 27.296875 75.984375 
L 25.09375 64.59375 
L 16.109375 64.59375 
z
M 14.203125 54.6875 
L 23.1875 54.6875 
L 12.5 0 
L 3.515625 0 
z
" id="DejaVuSans-Oblique-105"/>
       <path d="M 28.609375 0 
L 0.78125 72.90625 
L 11.078125 72.90625 
L 34.1875 11.53125 
L 57.328125 72.90625 
L 67.578125 72.90625 
L 39.796875 0 
z
" id="DejaVuSans-86"/>
       <path d="M 9.8125 72.90625 
L 19.671875 72.90625 
L 19.671875 8.296875 
L 55.171875 8.296875 
L 55.171875 0 
L 9.8125 0 
z
" id="DejaVuSans-76"/>
       <path d="M 19.671875 64.796875 
L 19.671875 37.40625 
L 32.078125 37.40625 
Q 38.96875 37.40625 42.71875 40.96875 
Q 46.484375 44.53125 46.484375 51.125 
Q 46.484375 57.671875 42.71875 61.234375 
Q 38.96875 64.796875 32.078125 64.796875 
z
M 9.8125 72.90625 
L 32.078125 72.90625 
Q 44.34375 72.90625 50.609375 67.359375 
Q 56.890625 61.8125 56.890625 51.125 
Q 56.890625 40.328125 50.609375 34.8125 
Q 44.34375 29.296875 32.078125 29.296875 
L 19.671875 29.296875 
L 19.671875 0 
L 9.8125 0 
z
" id="DejaVuSans-80"/>
       <path d="M 25.390625 72.90625 
L 33.6875 72.90625 
L 8.296875 -9.28125 
L 0 -9.28125 
z
" id="DejaVuSans-47"/>
       <path d="M 9.421875 75.984375 
L 18.40625 75.984375 
L 18.40625 0 
L 9.421875 0 
z
" id="DejaVuSans-108"/>
      </defs>
      <use transform="translate(0 0.015625)" xlink:href="#DejaVuSans-68"/>
      <use transform="translate(77.958984 -16.390625)scale(0.7)" xlink:href="#DejaVuSans-Oblique-105"/>
      <use transform="translate(100.141602 0.015625)" xlink:href="#DejaVuSans-32"/>
      <use transform="translate(131.928711 0.015625)" xlink:href="#DejaVuSans-40"/>
      <use transform="translate(170.942383 0.015625)" xlink:href="#DejaVuSans-86"/>
      <use transform="translate(239.350586 0.015625)" xlink:href="#DejaVuSans-76"/>
      <use transform="translate(295.063477 0.015625)" xlink:href="#DejaVuSans-80"/>
      <use transform="translate(355.366211 0.015625)" xlink:href="#DejaVuSans-47"/>
      <use transform="translate(389.057617 0.015625)" xlink:href="#DejaVuSans-109"/>
      <use transform="translate(486.469727 0.015625)" xlink:href="#DejaVuSans-108"/>
      <use transform="translate(514.25293 0.015625)" xlink:href="#DejaVuSans-41"/>
     </g>
    </g>
   </g>
   <g id="line2d_9">
    <path clip-path="url(#pa8fd7628b7)" d="M 53.085183 20.351467 
L 55.662133 22.411533 
L 58.239084 24.456936 
L 60.816034 26.487781 
L 63.392985 28.504171 
L 65.969936 30.50621 
L 68.546886 32.494 
L 71.123837 34.467642 
L 73.700787 36.427237 
L 76.277738 38.372884 
L 78.854689 40.304684 
L 81.431639 42.222734 
L 84.00859 44.127132 
L 86.58554 46.017976 
L 89.162491 47.895363 
L 91.739442 49.759387 
L 94.316392 51.610144 
L 96.893343 53.447728 
L 99.470293 55.272234 
L 102.047244 57.083754 
L 104.624195 58.882381 
L 107.201145 60.668206 
L 109.778096 62.44132 
L 112.355047 64.201815 
L 114.931997 65.949779 
L 117.508948 67.685303 
L 120.085898 69.408474 
L 122.662849 71.11938 
L 125.2398 72.81811 
L 127.81675 74.504748 
L 130.393701 76.179383 
L 132.970651 77.842098 
L 135.547602 79.492979 
L 138.124553 81.13211 
L 140.701503 82.759574 
L 143.278454 84.375456 
L 145.855404 85.979836 
L 148.432355 87.572798 
L 151.009306 89.154421 
L 153.586256 90.724788 
L 156.163207 92.283977 
L 158.740157 93.83207 
L 161.317108 95.369144 
L 163.894059 96.895277 
L 166.471009 98.410549 
L 169.04796 99.915036 
L 171.624911 101.408815 
L 174.201861 102.891962 
L 176.778812 104.364553 
L 179.355762 105.826663 
L 181.932713 107.278366 
L 184.509664 108.719737 
L 187.086614 110.15085 
L 189.663565 111.571776 
L 192.240515 112.982589 
L 194.817466 114.383361 
L 197.394417 115.774163 
L 199.971367 117.155066 
L 202.548318 118.526141 
L 205.125268 119.887457 
L 207.702219 121.239084 
" style="fill:none;stroke:#1f77b4;stroke-linecap:square;stroke-width:1.5;"/>
   </g>
   <g id="patch_3">
    <path d="M 45.354331 126.283465 
L 45.354331 15.307087 
" style="fill:none;stroke:#000000;stroke-linecap:square;stroke-linejoin:miter;stroke-width:0.8;"/>
   </g>
   <g id="patch_4">
    <path d="M 215.433071 126.283465 
L 215.433071 15.307087 
" style="fill:none;stroke:#000000;stroke-linecap:square;stroke-linejoin:miter;stroke-width:0.8;"/>
   </g>
   <g id="patch_5">
    <path d="M 45.354331 126.283465 
L 215.433071 126.283465 
" style="fill:none;stroke:#000000;stroke-linecap:square;stroke-linejoin:miter;stroke-width:0.8;"/>
   </g>
   <g id="patch_6">
    <path d="M 45.354331 15.307087 
L 215.433071 15.307087 
" style="fill:none;stroke:#000000;stroke-linecap:square;stroke-linejoin:miter;stroke-width:0.8;"/>
   </g>
  </g>
  <g id="axes_2">
   <g id="patch_7">
    <path d="M 45.354331 292.748031 
L 215.433071 292.748031 
L 215.433071 181.771654 
L 45.354331 181.771654 
z
" style="fill:#ffffff;"/>
   </g>
   <g id="matplotlib.axis_3">
    <g id="xtick_5">
     <g id="line2d_10">
      <g>
       <use style="stroke:#000000;stroke-width:0.8;" x="50.464555" xlink:href="#m2d43b5b257" y="292.748031"/>
      </g>
     </g>
     <g id="text_11">
      <!-- 0 -->
      <g transform="translate(48.555805 304.307094)scale(0.06 -0.06)">
       <use xlink:href="#DejaVuSans-48"/>
      </g>
     </g>
    </g>
    <g id="xtick_6">
     <g id="line2d_11">
      <g>
       <use style="stroke:#000000;stroke-width:0.8;" x="102.87711" xlink:href="#m2d43b5b257" y="292.748031"/>
      </g>
     </g>
     <g id="text_12">
      <!-- 20 -->
      <g transform="translate(99.05961 304.307094)scale(0.06 -0.06)">
       <use xlink:href="#DejaVuSans-50"/>
       <use x="63.623047" xlink:href="#DejaVuSans-48"/>
      </g>
     </g>
    </g>
    <g id="xtick_7">
     <g id="line2d_12">
      <g>
       <use style="stroke:#000000;stroke-width:0.8;" x="155.289664" xlink:href="#m2d43b5b257" y="292.748031"/>
      </g>
     </g>
     <g id="text_13">
      <!-- 40 -->
      <g transform="translate(151.472164 304.307094)scale(0.06 -0.06)">
       <use xlink:href="#DejaVuSans-52"/>
       <use x="63.623047" xlink:href="#DejaVuSans-48"/>
      </g>
     </g>
    </g>
    <g id="xtick_8">
     <g id="line2d_13">
      <g>
       <use style="stroke:#000000;stroke-width:0.8;" x="207.702219" xlink:href="#m2d43b5b257" y="292.748031"/>
      </g>
     </g>
     <g id="text_14">
      <!-- 60 -->
      <g transform="translate(203.884719 304.307094)scale(0.06 -0.06)">
       <use xlink:href="#DejaVuSans-54"/>
       <use x="63.623047" xlink:href="#DejaVuSans-48"/>
      </g>
     </g>
    </g>
    <g id="text_15">
     <!-- time (s) -->
     <g transform="translate(116.819716 314.873813)scale(0.07 -0.07)">
      <use xlink:href="#DejaVuSans-116"/>
      <use x="39.208984" xlink:href="#DejaVuSans-105"/>
      <use x="66.992188" xlink:href="#DejaVuSans-109"/>
      <use x="164.404297" xlink:href="#DejaVuSans-101"/>
      <use x="225.927734" xlink:href="#DejaVuSans-32"/>
      <use x="257.714844" xlink:href="#DejaVuSans-40"/>
      <use x="296.728516" xlink:href="#DejaVuSans-115"/>
      <use x="348.828125" xlink:href="#DejaVuSans-41"/>
     </g>
    </g>
   </g>
   <g id="matplotlib.axis_4">
    <g id="ytick_5">
     <g id="line2d_14">
      <g>
       <use style="stroke:#000000;stroke-width:0.8;" x="45.354331" xlink:href="#m71379e40b1" y="283.296166"/>
      </g>
     </g>
     <g id="text_16">
      <!-- 7.0e+06 -->
      <g transform="translate(12.457768 285.575697)scale(0.06 -0.06)">
       <use xlink:href="#DejaVuSans-55"/>
       <use x="63.623047" xlink:href="#DejaVuSans-46"/>
       <use x="95.410156" xlink:href="#DejaVuSans-48"/>
       <use x="159.033203" xlink:href="#DejaVuSans-101"/>
       <use x="220.556641" xlink:href="#DejaVuSans-43"/>
       <use x="304.345703" xlink:href="#DejaVuSans-48"/>
       <use x="367.96875" xlink:href="#DejaVuSans-54"/>
      </g>
     </g>
    </g>
    <g id="ytick_6">
     <g id="line2d_15">
      <g>
       <use style="stroke:#000000;stroke-width:0.8;" x="45.354331" xlink:href="#m71379e40b1" y="251.136122"/>
      </g>
     </g>
     <g id="text_17">
      <!-- 8.0e+06 -->
      <g transform="translate(12.457768 253.415653)scale(0.06 -0.06)">
       <use xlink:href="#DejaVuSans-56"/>
       <use x="63.623047" xlink:href="#DejaVuSans-46"/>
       <use x="95.410156" xlink:href="#DejaVuSans-48"/>
       <use x="159.033203" xlink:href="#DejaVuSans-101"/>
       <use x="220.556641" xlink:href="#DejaVuSans-43"/>
       <use x="304.345703" xlink:href="#DejaVuSans-48"/>
       <use x="367.96875" xlink:href="#DejaVuSans-54"/>
      </g>
     </g>
    </g>
    <g id="ytick_7">
     <g id="line2d_16">
      <g>
       <use style="stroke:#000000;stroke-width:0.8;" x="45.354331" xlink:href="#m71379e40b1" y="218.976078"/>
      </g>
     </g>
     <g id="text_18">
      <!-- 9.0e+06 -->
      <g transform="translate(12.457768 221.255609)scale(0.06 -0.06)">
       <use xlink:href="#DejaVuSans-57"/>
       <use x="63.623047" xlink:href="#DejaVuSans-46"/>
       <use x="95.410156" xlink:href="#DejaVuSans-48"/>
       <use x="159.033203" xlink:href="#DejaVuSans-101"/>
       <use x="220.556641" xlink:href="#DejaVuSans-43"/>
       <use x="304.345703" xlink:href="#DejaVuSans-48"/>
       <use x="367.96875" xlink:href="#DejaVuSans-54"/>
      </g>
     </g>
    </g>
    <g id="ytick_8">
     <g id="line2d_17">
      <g>
       <use style="stroke:#000000;stroke-width:0.8;" x="45.354331" xlink:href="#m71379e40b1" y="186.816034"/>
      </g>
     </g>
     <g id="text_19">
      <!-- 1.0e+07 -->
      <g transform="translate(12.457768 189.095566)scale(0.06 -0.06)">
       <use xlink:href="#DejaVuSans-49"/>
       <use x="63.623047" xlink:href="#DejaVuSans-46"/>
       <use x="95.410156" xlink:href="#DejaVuSans-48"/>
       <use x="159.033203" xlink:href="#DejaVuSans-101"/>
       <use x="220.556641" xlink:href="#DejaVuSans-43"/>
       <use x="304.345703" xlink:href="#DejaVuSans-48"/>
       <use x="367.96875" xlink:href="#DejaVuSans-55"/>
      </g>
     </g>
    </g>
    <g id="text_20">
     <!-- D$_s$ VLP/ml -->
     <g transform="translate(7.001987 254.514843)rotate(-90)scale(0.07 -0.07)">
      <defs>
       <path d="M 50 53.078125 
L 48.296875 44.578125 
Q 44.734375 46.53125 40.765625 47.5 
Q 36.8125 48.484375 32.625 48.484375 
Q 25.53125 48.484375 21.453125 46.0625 
Q 17.390625 43.65625 17.390625 39.5 
Q 17.390625 34.671875 26.859375 32.078125 
Q 27.59375 31.890625 27.9375 31.78125 
L 30.8125 30.90625 
Q 39.796875 28.421875 42.796875 25.6875 
Q 45.796875 22.953125 45.796875 18.21875 
Q 45.796875 9.515625 38.890625 4.046875 
Q 31.984375 -1.421875 20.796875 -1.421875 
Q 16.453125 -1.421875 11.671875 -0.578125 
Q 6.890625 0.25 1.125 2 
L 2.875 11.28125 
Q 7.8125 8.734375 12.59375 7.421875 
Q 17.390625 6.109375 21.78125 6.109375 
Q 28.375 6.109375 32.5 8.9375 
Q 36.625 11.765625 36.625 16.109375 
Q 36.625 20.796875 25.78125 23.6875 
L 24.859375 23.921875 
L 21.78125 24.703125 
Q 14.9375 26.515625 11.765625 29.46875 
Q 8.59375 32.421875 8.59375 37.015625 
Q 8.59375 45.75 15.15625 50.875 
Q 21.734375 56 33.015625 56 
Q 37.453125 56 41.671875 55.265625 
Q 45.90625 54.546875 50 53.078125 
z
" id="DejaVuSans-Oblique-115"/>
      </defs>
      <use transform="translate(0 0.015625)" xlink:href="#DejaVuSans-68"/>
      <use transform="translate(77.958984 -16.390625)scale(0.7)" xlink:href="#DejaVuSans-Oblique-115"/>
      <use transform="translate(117.163086 0.015625)" xlink:href="#DejaVuSans-32"/>
      <use transform="translate(148.950195 0.015625)" xlink:href="#DejaVuSans-86"/>
      <use transform="translate(217.358398 0.015625)" xlink:href="#DejaVuSans-76"/>
      <use transform="translate(273.071289 0.015625)" xlink:href="#DejaVuSans-80"/>
      <use transform="translate(333.374023 0.015625)" xlink:href="#DejaVuSans-47"/>
      <use transform="translate(367.06543 0.015625)" xlink:href="#DejaVuSans-109"/>
      <use transform="translate(464.477539 0.015625)" xlink:href="#DejaVuSans-108"/>
     </g>
    </g>
   </g>
   <g id="line2d_18">
    <path clip-path="url(#p56bbf7ddcc)" d="M 53.085183 187.847293 
L 55.70581 188.873656 
L 58.326438 189.895149 
L 60.947066 190.911797 
L 63.567693 191.923628 
L 66.188321 192.930666 
L 68.808949 193.932937 
L 71.429577 194.930466 
L 74.050204 195.923279 
L 76.670832 196.911401 
L 79.29146 197.894857 
L 81.912088 198.873672 
L 84.532715 199.84787 
L 87.153343 200.817476 
L 89.773971 201.782514 
L 92.394599 202.743009 
L 95.015226 203.698985 
L 97.635854 204.650466 
L 100.256482 205.597475 
L 102.87711 206.540036 
L 105.497737 207.478174 
L 108.118365 208.411911 
L 110.738993 209.34127 
L 113.35962 210.266276 
L 115.980248 211.18695 
L 118.600876 212.103317 
L 121.221504 213.015398 
L 123.842131 213.923217 
L 126.462759 214.826796 
L 129.083387 215.726157 
L 131.704015 216.621323 
L 134.324642 217.512315 
L 136.94527 218.399157 
L 139.565898 219.281869 
L 142.186526 220.160474 
L 144.807153 221.034994 
L 147.427781 221.905449 
L 150.048409 222.771861 
L 152.669037 223.634252 
L 155.289664 224.492643 
L 157.910292 225.347054 
L 160.53092 226.197507 
L 163.151548 227.044023 
L 165.772175 227.886622 
L 168.392803 228.725325 
L 171.013431 229.560152 
L 173.634058 230.391124 
L 176.254686 231.218261 
L 178.875314 232.041584 
L 181.495942 232.861111 
L 184.116569 233.676863 
L 186.737197 234.48886 
L 189.357825 235.297122 
L 191.978453 236.101667 
L 194.59908 236.902517 
L 197.219708 237.699689 
L 199.840336 238.493203 
L 202.460964 239.283079 
L 205.081591 240.069335 
L 207.702219 240.85199 
" style="fill:none;stroke:#1f77b4;stroke-linecap:square;stroke-width:1.5;"/>
   </g>
   <g id="patch_8">
    <path d="M 45.354331 292.748031 
L 45.354331 181.771654 
" style="fill:none;stroke:#000000;stroke-linecap:square;stroke-linejoin:miter;stroke-width:0.8;"/>
   </g>
   <g id="patch_9">
    <path d="M 215.433071 292.748031 
L 215.433071 181.771654 
" style="fill:none;stroke:#000000;stroke-linecap:square;stroke-linejoin:miter;stroke-width:0.8;"/>
   </g>
   <g id="patch_10">
    <path d="M 45.354331 292.748031 
L 215.433071 292.748031 
" style="fill:none;stroke:#000000;stroke-linecap:square;stroke-linejoin:miter;stroke-width:0.8;"/>
   </g>
   <g id="patch_11">
    <path d="M 45.354331 181.771654 
L 215.433071 181.771654 
" style="fill:none;stroke:#000000;stroke-linecap:square;stroke-linejoin:miter;stroke-width:0.8;"/>
   </g>
  </g>
  <g id="axes_3">
   <g id="patch_12">
    <path d="M 45.354331 459.212598 
L 215.433071 459.212598 
L 215.433071 348.23622 
L 45.354331 348.23622 
z
" style="fill:#ffffff;"/>
   </g>
   <g id="matplotlib.axis_5">
    <g id="xtick_9">
     <g id="line2d_19">
      <g>
       <use style="stroke:#000000;stroke-width:0.8;" x="69.992049" xlink:href="#m2d43b5b257" y="459.212598"/>
      </g>
     </g>
     <g id="text_21">
      <!-- 8.5e+06 -->
      <g transform="translate(57.043767 470.771661)scale(0.06 -0.06)">
       <defs>
        <path d="M 10.796875 72.90625 
L 49.515625 72.90625 
L 49.515625 64.59375 
L 19.828125 64.59375 
L 19.828125 46.734375 
Q 21.96875 47.46875 24.109375 47.828125 
Q 26.265625 48.1875 28.421875 48.1875 
Q 40.625 48.1875 47.75 41.5 
Q 54.890625 34.8125 54.890625 23.390625 
Q 54.890625 11.625 47.5625 5.09375 
Q 40.234375 -1.421875 26.90625 -1.421875 
Q 22.3125 -1.421875 17.546875 -0.640625 
Q 12.796875 0.140625 7.71875 1.703125 
L 7.71875 11.625 
Q 12.109375 9.234375 16.796875 8.0625 
Q 21.484375 6.890625 26.703125 6.890625 
Q 35.15625 6.890625 40.078125 11.328125 
Q 45.015625 15.765625 45.015625 23.390625 
Q 45.015625 31 40.078125 35.4375 
Q 35.15625 39.890625 26.703125 39.890625 
Q 22.75 39.890625 18.8125 39.015625 
Q 14.890625 38.140625 10.796875 36.28125 
z
" id="DejaVuSans-53"/>
       </defs>
       <use xlink:href="#DejaVuSans-56"/>
       <use x="63.623047" xlink:href="#DejaVuSans-46"/>
       <use x="95.410156" xlink:href="#DejaVuSans-53"/>
       <use x="159.033203" xlink:href="#DejaVuSans-101"/>
       <use x="220.556641" xlink:href="#DejaVuSans-43"/>
       <use x="304.345703" xlink:href="#DejaVuSans-48"/>
       <use x="367.96875" xlink:href="#DejaVuSans-54"/>
      </g>
     </g>
    </g>
    <g id="xtick_10">
     <g id="line2d_20">
      <g>
       <use style="stroke:#000000;stroke-width:0.8;" x="116.898181" xlink:href="#m2d43b5b257" y="459.212598"/>
      </g>
     </g>
     <g id="text_22">
      <!-- 9.0e+06 -->
      <g transform="translate(103.9499 470.771661)scale(0.06 -0.06)">
       <use xlink:href="#DejaVuSans-57"/>
       <use x="63.623047" xlink:href="#DejaVuSans-46"/>
       <use x="95.410156" xlink:href="#DejaVuSans-48"/>
       <use x="159.033203" xlink:href="#DejaVuSans-101"/>
       <use x="220.556641" xlink:href="#DejaVuSans-43"/>
       <use x="304.345703" xlink:href="#DejaVuSans-48"/>
       <use x="367.96875" xlink:href="#DejaVuSans-54"/>
      </g>
     </g>
    </g>
    <g id="xtick_11">
     <g id="line2d_21">
      <g>
       <use style="stroke:#000000;stroke-width:0.8;" x="163.804314" xlink:href="#m2d43b5b257" y="459.212598"/>
      </g>
     </g>
     <g id="text_23">
      <!-- 9.5e+06 -->
      <g transform="translate(150.856033 470.771661)scale(0.06 -0.06)">
       <use xlink:href="#DejaVuSans-57"/>
       <use x="63.623047" xlink:href="#DejaVuSans-46"/>
       <use x="95.410156" xlink:href="#DejaVuSans-53"/>
       <use x="159.033203" xlink:href="#DejaVuSans-101"/>
       <use x="220.556641" xlink:href="#DejaVuSans-43"/>
       <use x="304.345703" xlink:href="#DejaVuSans-48"/>
       <use x="367.96875" xlink:href="#DejaVuSans-54"/>
      </g>
     </g>
    </g>
    <g id="xtick_12">
     <g id="line2d_22">
      <g>
       <use style="stroke:#000000;stroke-width:0.8;" x="210.710447" xlink:href="#m2d43b5b257" y="459.212598"/>
      </g>
     </g>
     <g id="text_24">
      <!-- 1.0e+07 -->
      <g transform="translate(197.762165 470.771661)scale(0.06 -0.06)">
       <use xlink:href="#DejaVuSans-49"/>
       <use x="63.623047" xlink:href="#DejaVuSans-46"/>
       <use x="95.410156" xlink:href="#DejaVuSans-48"/>
       <use x="159.033203" xlink:href="#DejaVuSans-101"/>
       <use x="220.556641" xlink:href="#DejaVuSans-43"/>
       <use x="304.345703" xlink:href="#DejaVuSans-48"/>
       <use x="367.96875" xlink:href="#DejaVuSans-55"/>
      </g>
     </g>
    </g>
    <g id="text_25">
     <!-- D$_s$ (VLP/ml) -->
     <g transform="translate(110.408701 481.33838)scale(0.07 -0.07)">
      <use transform="translate(0 0.015625)" xlink:href="#DejaVuSans-68"/>
      <use transform="translate(77.958984 -16.390625)scale(0.7)" xlink:href="#DejaVuSans-Oblique-115"/>
      <use transform="translate(117.163086 0.015625)" xlink:href="#DejaVuSans-32"/>
      <use transform="translate(148.950195 0.015625)" xlink:href="#DejaVuSans-40"/>
      <use transform="translate(187.963867 0.015625)" xlink:href="#DejaVuSans-86"/>
      <use transform="translate(256.37207 0.015625)" xlink:href="#DejaVuSans-76"/>
      <use transform="translate(312.084961 0.015625)" xlink:href="#DejaVuSans-80"/>
      <use transform="translate(372.387695 0.015625)" xlink:href="#DejaVuSans-47"/>
      <use transform="translate(406.079102 0.015625)" xlink:href="#DejaVuSans-109"/>
      <use transform="translate(503.491211 0.015625)" xlink:href="#DejaVuSans-108"/>
      <use transform="translate(531.274414 0.015625)" xlink:href="#DejaVuSans-41"/>
     </g>
    </g>
   </g>
   <g id="matplotlib.axis_6">
    <g id="ytick_9">
     <g id="line2d_23">
      <g>
       <use style="stroke:#000000;stroke-width:0.8;" x="45.354331" xlink:href="#m71379e40b1" y="449.668858"/>
      </g>
     </g>
     <g id="text_26">
      <!-- 7.0e+06 -->
      <g transform="translate(12.457768 451.948389)scale(0.06 -0.06)">
       <use xlink:href="#DejaVuSans-55"/>
       <use x="63.623047" xlink:href="#DejaVuSans-46"/>
       <use x="95.410156" xlink:href="#DejaVuSans-48"/>
       <use x="159.033203" xlink:href="#DejaVuSans-101"/>
       <use x="220.556641" xlink:href="#DejaVuSans-43"/>
       <use x="304.345703" xlink:href="#DejaVuSans-48"/>
       <use x="367.96875" xlink:href="#DejaVuSans-54"/>
      </g>
     </g>
    </g>
    <g id="ytick_10">
     <g id="line2d_24">
      <g>
       <use style="stroke:#000000;stroke-width:0.8;" x="45.354331" xlink:href="#m71379e40b1" y="416.838437"/>
      </g>
     </g>
     <g id="text_27">
      <!-- 8.0e+06 -->
      <g transform="translate(12.457768 419.117968)scale(0.06 -0.06)">
       <use xlink:href="#DejaVuSans-56"/>
       <use x="63.623047" xlink:href="#DejaVuSans-46"/>
       <use x="95.410156" xlink:href="#DejaVuSans-48"/>
       <use x="159.033203" xlink:href="#DejaVuSans-101"/>
       <use x="220.556641" xlink:href="#DejaVuSans-43"/>
       <use x="304.345703" xlink:href="#DejaVuSans-48"/>
       <use x="367.96875" xlink:href="#DejaVuSans-54"/>
      </g>
     </g>
    </g>
    <g id="ytick_11">
     <g id="line2d_25">
      <g>
       <use style="stroke:#000000;stroke-width:0.8;" x="45.354331" xlink:href="#m71379e40b1" y="384.008015"/>
      </g>
     </g>
     <g id="text_28">
      <!-- 9.0e+06 -->
      <g transform="translate(12.457768 386.287547)scale(0.06 -0.06)">
       <use xlink:href="#DejaVuSans-57"/>
       <use x="63.623047" xlink:href="#DejaVuSans-46"/>
       <use x="95.410156" xlink:href="#DejaVuSans-48"/>
       <use x="159.033203" xlink:href="#DejaVuSans-101"/>
       <use x="220.556641" xlink:href="#DejaVuSans-43"/>
       <use x="304.345703" xlink:href="#DejaVuSans-48"/>
       <use x="367.96875" xlink:href="#DejaVuSans-54"/>
      </g>
     </g>
    </g>
    <g id="ytick_12">
     <g id="line2d_26">
      <g>
       <use style="stroke:#000000;stroke-width:0.8;" x="45.354331" xlink:href="#m71379e40b1" y="351.177594"/>
      </g>
     </g>
     <g id="text_29">
      <!-- 1.0e+07 -->
      <g transform="translate(12.457768 353.457125)scale(0.06 -0.06)">
       <use xlink:href="#DejaVuSans-49"/>
       <use x="63.623047" xlink:href="#DejaVuSans-46"/>
       <use x="95.410156" xlink:href="#DejaVuSans-48"/>
       <use x="159.033203" xlink:href="#DejaVuSans-101"/>
       <use x="220.556641" xlink:href="#DejaVuSans-43"/>
       <use x="304.345703" xlink:href="#DejaVuSans-48"/>
       <use x="367.96875" xlink:href="#DejaVuSans-55"/>
      </g>
     </g>
    </g>
    <g id="text_30">
     <!-- D$_i$ (VLP/ml) -->
     <g transform="translate(7.001987 423.114409)rotate(-90)scale(0.07 -0.07)">
      <use transform="translate(0 0.015625)" xlink:href="#DejaVuSans-68"/>
      <use transform="translate(77.958984 -16.390625)scale(0.7)" xlink:href="#DejaVuSans-Oblique-105"/>
      <use transform="translate(100.141602 0.015625)" xlink:href="#DejaVuSans-32"/>
      <use transform="translate(131.928711 0.015625)" xlink:href="#DejaVuSans-40"/>
      <use transform="translate(170.942383 0.015625)" xlink:href="#DejaVuSans-86"/>
      <use transform="translate(239.350586 0.015625)" xlink:href="#DejaVuSans-76"/>
      <use transform="translate(295.063477 0.015625)" xlink:href="#DejaVuSans-80"/>
      <use transform="translate(355.366211 0.015625)" xlink:href="#DejaVuSans-47"/>
      <use transform="translate(389.057617 0.015625)" xlink:href="#DejaVuSans-109"/>
      <use transform="translate(486.469727 0.015625)" xlink:href="#DejaVuSans-108"/>
      <use transform="translate(514.25293 0.015625)" xlink:href="#DejaVuSans-41"/>
     </g>
    </g>
   </g>
   <g id="line2d_27">
    <path clip-path="url(#p49bad020b2)" d="M 207.702219 353.280601 
L 204.708274 355.368641 
L 201.728535 357.441819 
L 198.762926 359.500241 
L 195.811372 361.544013 
L 192.873798 363.573238 
L 189.950129 365.588021 
L 187.040291 367.588463 
L 184.144211 369.574668 
L 181.261816 371.546736 
L 178.393031 373.504768 
L 175.537786 375.448864 
L 172.696007 377.379122 
L 169.867624 379.295643 
L 167.052564 381.198523 
L 164.250758 383.087859 
L 161.462135 384.963748 
L 158.686624 386.826286 
L 155.924157 388.675567 
L 153.174663 390.511686 
L 150.438075 392.334736 
L 147.714323 394.144812 
L 145.00334 395.942004 
L 142.305058 397.726405 
L 139.61941 399.498105 
L 136.946328 401.257196 
L 134.285747 403.003766 
L 131.6376 404.737906 
L 129.001821 406.459703 
L 126.378345 408.169245 
L 123.767106 409.866619 
L 121.168042 411.551913 
L 118.581086 413.225212 
L 116.006175 414.886601 
L 113.443245 416.536165 
L 110.892234 418.173989 
L 108.353078 419.800156 
L 105.825715 421.414749 
L 103.310083 423.01785 
L 100.806119 424.609541 
L 98.313764 426.189903 
L 95.832954 427.759017 
L 93.36363 429.316963 
L 90.905732 430.863821 
L 88.459198 432.399669 
L 86.02397 433.924586 
L 83.599988 435.438649 
L 81.187193 436.941936 
L 78.785526 438.434524 
L 76.394929 439.916488 
L 74.015343 441.387905 
L 71.646712 442.848849 
L 69.288977 444.299394 
L 66.942082 445.739616 
L 64.605969 447.169587 
L 62.280583 448.58938 
L 59.965867 449.999068 
L 57.661765 451.398723 
L 55.368222 452.788416 
L 53.085183 454.168218 
" style="fill:none;stroke:#1f77b4;stroke-linecap:square;stroke-width:1.5;"/>
   </g>
   <g id="patch_13">
    <path d="M 45.354331 459.212598 
L 45.354331 348.23622 
" style="fill:none;stroke:#000000;stroke-linecap:square;stroke-linejoin:miter;stroke-width:0.8;"/>
   </g>
   <g id="patch_14">
    <path d="M 215.433071 459.212598 
L 215.433071 348.23622 
" style="fill:none;stroke:#000000;stroke-linecap:square;stroke-linejoin:miter;stroke-width:0.8;"/>
   </g>
   <g id="patch_15">
    <path d="M 45.354331 459.212598 
L 215.433071 459.212598 
" style="fill:none;stroke:#000000;stroke-linecap:square;stroke-linejoin:miter;stroke-width:0.8;"/>
   </g>
   <g id="patch_16">
    <path d="M 45.354331 348.23622 
L 215.433071 348.23622 
" style="fill:none;stroke:#000000;stroke-linecap:square;stroke-linejoin:miter;stroke-width:0.8;"/>
   </g>
  </g>
 </g>
 <defs>
  <clipPath id="pa8fd7628b7">
   <rect height="110.976378" width="170.07874" x="45.354331" y="15.307087"/>
  </clipPath>
  <clipPath id="p56bbf7ddcc">
   <rect height="110.976378" width="170.07874" x="45.354331" y="181.771654"/>
  </clipPath>
  <clipPath id="p49bad020b2">
   <rect height="110.976378" width="170.07874" x="45.354331" y="348.23622"/>
  </clipPath>
 </defs>
</svg>
